ffmpeg version git-2026-04-19-de18feb Copyright (c) 2000-2026 the FFmpeg developers
  built with gcc 9 (Ubuntu 9.4.0-1ubuntu1~20.04.2)
  configuration: --enable-shared --enable-gpl --enable-libx264
  libavutil      60. 30.100 / 60. 30.100
  libavcodec     62. 30.100 / 62. 30.100
  libavformat    62. 13.102 / 62. 13.102
  libavdevice    62.  4.100 / 62.  4.100
  libavfilter    11. 15.101 / 11. 15.101
  libswscale      9.  7.100 /  9.  7.100
  libswresample   6.  4.100 /  6.  4.100
[in#0/x11grab @ 0x55badcc79c40] Stream #0: not enough frames to estimate rate; consider increasing probesize
Input #0, x11grab, from ':0.0+0,0':
  Duration: N/A, start: 1777369837.308114, bitrate: 3678192 kb/s
  Stream #0:0: Video: rawvideo (BGR[0] / 0x524742), bgr0, 2870x1602, 3678192 kb/s, 25 fps, 1000k tbr, 1000k tbn, start 1777369837.308114
Stream mapping:
  Stream #0:0 -> #0:0 (rawvideo (native) -> h264 (libx264))
[libx264 @ 0x55badcc87f00] using cpu capabilities: MMX2 SSE2Fast SSSE3 SSE4.2 AVX FMA3 BMI2 AVX2
[libx264 @ 0x55badcc87f00] profile High, level 5.0
[libx264 @ 0x55badcc87f00] 264 - core 155 r2917 0a84d98 - H.264/MPEG-4 AVC codec - Copyleft 2003-2018 - http://www.videolan.org/x264.html - options: cabac=1 ref=1 deblock=1:0:0 analyse=0x3:0x113 me=hex subme=2 psy=1 psy_rd=1.00:0.00 mixed_ref=0 me_range=16 chroma_me=1 trellis=0 8x8dct=1 cqm=0 deadzone=21,11 fast_pskip=1 chroma_qp_offset=0 threads=6 lookahead_threads=2 sliced_threads=0 nr=0 decimate=1 interlaced=0 bluray_compat=0 constrained_intra=0 bframes=3 b_pyramid=2 b_adapt=1 b_bias=0 direct=1 weightb=1 open_gop=0 weightp=1 keyint=250 keyint_min=25 scenecut=40 intra_refresh=0 rc_lookahead=10 rc=crf mbtree=1 crf=23.0 qcomp=0.60 qpmin=0 qpmax=69 qpstep=4 ip_ratio=1.40 aq=1:1.00
Output #0, matroska, to '/home/lmy/catkin_ws/recordings_tmp/exp_10_point2/screen.mkv':
  Metadata:
    encoder         : Lavf62.13.102
  Stream #0:0: Video: h264 (H264 / 0x34363248), yuv420p(tv, progressive), 2870x1602, q=2-31, 25 fps, 1k tbn
    Metadata:
      encoder         : Lavc62.30.100 libx264
    Side data:
      CPB properties: bitrate max/min/avg: 0/0/0 buffer size: 0 vbv_delay: N/A
frame=    0 fps=0.0 q=0.0 size=       0KiB time=N/A bitrate=N/A speed=N/A elapsed=0:00:00.50    frame=    6 fps=6.0 q=28.0 size=       1KiB time=00:00:00.16 bitrate=  29.7kbits/s speed=0.16x elapsed=0:00:01.00    frame=   18 fps= 12 q=28.0 size=       1KiB time=00:00:00.64 bitrate=   7.4kbits/s speed=0.426x elapsed=0:00:01.50    frame=   31 fps= 15 q=28.0 size=       1KiB time=00:00:01.16 bitrate=   4.1kbits/s speed=0.579x elapsed=0:00:02.00    frame=   43 fps= 17 q=28.0 size=       1KiB time=00:00:01.64 bitrate=   2.9kbits/s speed=0.656x elapsed=0:00:02.50    frame=   56 fps= 19 q=28.0 size=       1KiB time=00:00:02.16 bitrate=   2.2kbits/s speed=0.719x elapsed=0:00:03.00    frame=   68 fps= 19 q=28.0 size=       1KiB time=00:00:02.64 bitrate=   1.8kbits/s speed=0.754x elapsed=0:00:03.50    frame=   81 fps= 20 q=28.0 size=       1KiB time=00:00:03.16 bitrate=   1.5kbits/s speed=0.789x elapsed=0:00:04.00    frame=   93 fps= 21 q=28.0 size=       1KiB time=00:00:03.64 bitrate=   1.3kbits/s speed=0.808x elapsed=0:00:04.50    frame=  106 fps= 21 q=28.0 size=       1KiB time=00:00:04.16 bitrate=   1.1kbits/s speed=0.831x elapsed=0:00:05.00    frame=  118 fps= 21 q=28.0 size=       1KiB time=00:00:04.64 bitrate=   1.0kbits/s speed=0.843x elapsed=0:00:05.50    frame=  131 fps= 22 q=28.0 size=     170KiB time=00:00:05.16 bitrate= 270.4kbits/s speed=0.859x elapsed=0:00:06.00    frame=  143 fps= 22 q=28.0 size=     170KiB time=00:00:05.64 bitrate= 247.4kbits/s speed=0.867x elapsed=0:00:06.50    frame=  156 fps= 22 q=28.0 size=     170KiB time=00:00:06.16 bitrate= 226.5kbits/s speed=0.879x elapsed=0:00:07.00    frame=  168 fps= 22 q=28.0 size=     170KiB time=00:00:06.64 bitrate= 210.1kbits/s speed=0.884x elapsed=0:00:07.50    frame=  181 fps= 23 q=28.0 size=     170KiB time=00:00:07.16 bitrate= 194.9kbits/s speed=0.894x elapsed=0:00:08.00    frame=  193 fps= 23 q=28.0 size=     170KiB time=00:00:07.64 bitrate= 182.6kbits/s speed=0.898x elapsed=0:00:08.50    frame=  206 fps= 23 q=28.0 size=     170KiB time=00:00:08.16 bitrate= 171.0kbits/s speed=0.906x elapsed=0:00:09.00    frame=  218 fps= 23 q=28.0 size=     170KiB time=00:00:08.64 bitrate= 161.5kbits/s speed=0.909x elapsed=0:00:09.50    frame=  231 fps= 23 q=28.0 size=     170KiB time=00:00:09.16 bitrate= 152.3kbits/s speed=0.915x elapsed=0:00:10.01    frame=  243 fps= 23 q=28.0 size=     170KiB time=00:00:09.64 bitrate= 144.7kbits/s speed=0.917x elapsed=0:00:10.51    frame=  256 fps= 23 q=28.0 size=     251KiB time=00:00:10.16 bitrate= 202.5kbits/s speed=0.923x elapsed=0:00:11.01    frame=  269 fps= 23 q=28.0 size=     251KiB time=00:00:10.68 bitrate= 192.6kbits/s speed=0.928x elapsed=0:00:11.51    frame=  281 fps= 23 q=28.0 size=     251KiB time=00:00:11.16 bitrate= 184.3kbits/s speed=0.929x elapsed=0:00:12.01    frame=  293 fps= 23 q=28.0 size=     251KiB time=00:00:11.64 bitrate= 176.7kbits/s speed=0.93x elapsed=0:00:12.51    frame=  306 fps= 24 q=28.0 size=     251KiB time=00:00:12.16 bitrate= 169.2kbits/s speed=0.934x elapsed=0:00:13.01    frame=  318 fps= 24 q=28.0 size=     251KiB time=00:00:12.68 bitrate= 162.2kbits/s speed=0.938x elapsed=0:00:13.51    frame=  331 fps= 24 q=28.0 size=     251KiB time=00:00:13.16 bitrate= 156.3kbits/s speed=0.939x elapsed=0:00:14.01    frame=  344 fps= 24 q=28.0 size=     251KiB time=00:00:13.68 bitrate= 150.4kbits/s speed=0.942x elapsed=0:00:14.52    frame=  356 fps= 24 q=28.0 size=     251KiB time=00:00:14.16 bitrate= 145.3kbits/s speed=0.943x elapsed=0:00:15.02    frame=  369 fps= 24 q=28.0 size=     251KiB time=00:00:14.68 bitrate= 140.1kbits/s speed=0.946x elapsed=0:00:15.52    frame=  381 fps= 24 q=28.0 size=     256KiB time=00:00:15.16 bitrate= 138.3kbits/s speed=0.946x elapsed=0:00:16.02    frame=  394 fps= 24 q=28.0 size=     256KiB time=00:00:15.68 bitrate= 133.7kbits/s speed=0.949x elapsed=0:00:16.52    frame=  406 fps= 24 q=28.0 size=     256KiB time=00:00:16.16 bitrate= 129.8kbits/s speed=0.949x elapsed=0:00:17.02    frame=  419 fps= 24 q=28.0 size=     256KiB time=00:00:16.68 bitrate= 125.7kbits/s speed=0.952x elapsed=0:00:17.52    frame=  431 fps= 24 q=28.0 size=     256KiB time=00:00:17.16 bitrate= 122.2kbits/s speed=0.952x elapsed=0:00:18.02    frame=  444 fps= 24 q=28.0 size=     256KiB time=00:00:17.68 bitrate= 118.6kbits/s speed=0.954x elapsed=0:00:18.52    frame=  456 fps= 24 q=28.0 size=     256KiB time=00:00:18.16 bitrate= 115.5kbits/s speed=0.954x elapsed=0:00:19.02    frame=  469 fps= 24 q=28.0 size=     256KiB time=00:00:18.68 bitrate= 112.3kbits/s speed=0.957x elapsed=0:00:19.52    frame=  481 fps= 24 q=28.0 size=     256KiB time=00:00:19.16 bitrate= 109.5kbits/s speed=0.957x elapsed=0:00:20.02    frame=  494 fps= 24 q=28.0 size=     256KiB time=00:00:19.68 bitrate= 106.6kbits/s speed=0.959x elapsed=0:00:20.52    frame=  506 fps= 24 q=28.0 size=     512KiB time=00:00:20.16 bitrate= 208.1kbits/s speed=0.959x elapsed=0:00:21.02    frame=  519 fps= 24 q=28.0 size=     512KiB time=00:00:20.68 bitrate= 202.8kbits/s speed=0.961x elapsed=0:00:21.52    frame=  531 fps= 24 q=28.0 size=     512KiB time=00:00:21.16 bitrate= 198.2kbits/s speed=0.961x elapsed=0:00:22.02    frame=  544 fps= 24 q=28.0 size=     512KiB time=00:00:21.68 bitrate= 193.5kbits/s speed=0.962x elapsed=0:00:22.52    frame=  556 fps= 24 q=28.0 size=     512KiB time=00:00:22.16 bitrate= 189.3kbits/s speed=0.962x elapsed=0:00:23.02    frame=  569 fps= 24 q=28.0 size=     512KiB time=00:00:22.68 bitrate= 184.9kbits/s speed=0.964x elapsed=0:00:23.53    frame=  581 fps= 24 q=28.0 size=     512KiB time=00:00:23.16 bitrate= 181.1kbits/s speed=0.964x elapsed=0:00:24.03    frame=  594 fps= 24 q=28.0 size=     512KiB time=00:00:23.68 bitrate= 177.1kbits/s speed=0.965x elapsed=0:00:24.53    frame=  606 fps= 24 q=28.0 size=     512KiB time=00:00:24.16 bitrate= 173.6kbits/s speed=0.965x elapsed=0:00:25.03    frame=  619 fps= 24 q=28.0 size=     512KiB time=00:00:24.68 bitrate= 169.9kbits/s speed=0.967x elapsed=0:00:25.53    frame=  631 fps= 24 q=28.0 size=     512KiB time=00:00:25.16 bitrate= 166.7kbits/s speed=0.967x elapsed=0:00:26.03    frame=  644 fps= 24 q=28.0 size=     512KiB time=00:00:25.68 bitrate= 163.3kbits/s speed=0.968x elapsed=0:00:26.53    frame=  656 fps= 24 q=28.0 size=     512KiB time=00:00:26.16 bitrate= 160.3kbits/s speed=0.968x elapsed=0:00:27.03    frame=  669 fps= 24 q=28.0 size=     512KiB time=00:00:26.68 bitrate= 157.2kbits/s speed=0.969x elapsed=0:00:27.53    frame=  682 fps= 24 q=28.0 size=     512KiB time=00:00:27.20 bitrate= 154.2kbits/s speed=0.97x elapsed=0:00:28.03    frame=  694 fps= 24 q=28.0 size=     512KiB time=00:00:27.68 bitrate= 151.5kbits/s speed=0.97x elapsed=0:00:28.53    frame=  707 fps= 24 q=28.0 size=     512KiB time=00:00:28.20 bitrate= 148.7kbits/s speed=0.971x elapsed=0:00:29.03    frame=  719 fps= 24 q=28.0 size=     512KiB time=00:00:28.68 bitrate= 146.2kbits/s speed=0.971x elapsed=0:00:29.53    frame=  732 fps= 24 q=28.0 size=     512KiB time=00:00:29.20 bitrate= 143.6kbits/s speed=0.972x elapsed=0:00:30.04    frame=  744 fps= 24 q=28.0 size=     512KiB time=00:00:29.68 bitrate= 141.3kbits/s speed=0.972x elapsed=0:00:30.54    frame=  757 fps= 24 q=28.0 size=     768KiB time=00:00:30.20 bitrate= 208.3kbits/s speed=0.973x elapsed=0:00:31.04    frame=  769 fps= 24 q=28.0 size=     768KiB time=00:00:30.68 bitrate= 205.1kbits/s speed=0.973x elapsed=0:00:31.54    frame=  782 fps= 24 q=28.0 size=     768KiB time=00:00:31.20 bitrate= 201.6kbits/s speed=0.974x elapsed=0:00:32.04    frame=  794 fps= 24 q=28.0 size=     768KiB time=00:00:31.68 bitrate= 198.6kbits/s speed=0.973x elapsed=0:00:32.54    frame=  807 fps= 24 q=28.0 size=     768KiB time=00:00:32.20 bitrate= 195.4kbits/s speed=0.974x elapsed=0:00:33.04    frame=  819 fps= 24 q=28.0 size=     768KiB time=00:00:32.68 bitrate= 192.5kbits/s speed=0.974x elapsed=0:00:33.54    frame=  831 fps= 24 q=28.0 size=     768KiB time=00:00:33.16 bitrate= 189.7kbits/s speed=0.974x elapsed=0:00:34.04    frame=  844 fps= 24 q=28.0 size=     768KiB time=00:00:33.68 bitrate= 186.8kbits/s speed=0.975x elapsed=0:00:34.54    frame=  857 fps= 24 q=28.0 size=     768KiB time=00:00:34.20 bitrate= 184.0kbits/s speed=0.976x elapsed=0:00:35.04    frame=  869 fps= 24 q=28.0 size=     768KiB time=00:00:34.68 bitrate= 181.4kbits/s speed=0.976x elapsed=0:00:35.54    frame=  882 fps= 24 q=28.0 size=     768KiB time=00:00:35.20 bitrate= 178.7kbits/s speed=0.976x elapsed=0:00:36.04    frame=  894 fps= 24 q=28.0 size=     768KiB time=00:00:35.68 bitrate= 176.3kbits/s speed=0.976x elapsed=0:00:36.54    frame=  907 fps= 24 q=28.0 size=     768KiB time=00:00:36.20 bitrate= 173.8kbits/s speed=0.977x elapsed=0:00:37.05    frame=  919 fps= 24 q=28.0 size=     768KiB time=00:00:36.68 bitrate= 171.5kbits/s speed=0.977x elapsed=0:00:37.55    frame=  932 fps= 24 q=28.0 size=     768KiB time=00:00:37.20 bitrate= 169.1kbits/s speed=0.978x elapsed=0:00:38.05    frame=  944 fps= 24 q=28.0 size=     768KiB time=00:00:37.68 bitrate= 167.0kbits/s speed=0.977x elapsed=0:00:38.55    frame=  957 fps= 25 q=28.0 size=     768KiB time=00:00:38.20 bitrate= 164.7kbits/s speed=0.978x elapsed=0:00:39.05    frame=  969 fps= 24 q=28.0 size=     768KiB time=00:00:38.68 bitrate= 162.7kbits/s speed=0.978x elapsed=0:00:39.55    frame=  982 fps= 25 q=28.0 size=     768KiB time=00:00:39.20 bitrate= 160.5kbits/s speed=0.979x elapsed=0:00:40.05    frame=  994 fps= 25 q=28.0 size=     768KiB time=00:00:39.68 bitrate= 158.6kbits/s speed=0.979x elapsed=0:00:40.55    frame= 1007 fps= 25 q=28.0 size=    1024KiB time=00:00:40.20 bitrate= 208.7kbits/s speed=0.979x elapsed=0:00:41.05    frame= 1020 fps= 25 q=28.0 size=    1024KiB time=00:00:40.72 bitrate= 206.0kbits/s speed=0.98x elapsed=0:00:41.55    frame= 1032 fps= 25 q=28.0 size=    1024KiB time=00:00:41.20 bitrate= 203.6kbits/s speed=0.98x elapsed=0:00:42.05    frame= 1045 fps= 25 q=28.0 size=    1024KiB time=00:00:41.72 bitrate= 201.1kbits/s speed=0.98x elapsed=0:00:42.55    frame= 1057 fps= 25 q=28.0 size=    1024KiB time=00:00:42.20 bitrate= 198.8kbits/s speed=0.98x elapsed=0:00:43.05    frame= 1070 fps= 25 q=28.0 size=    1024KiB time=00:00:42.72 bitrate= 196.4kbits/s speed=0.981x elapsed=0:00:43.55    frame= 1082 fps= 25 q=28.0 size=    1024KiB time=00:00:43.20 bitrate= 194.2kbits/s speed=0.981x elapsed=0:00:44.05    frame= 1095 fps= 25 q=28.0 size=    1024KiB time=00:00:43.72 bitrate= 191.9kbits/s speed=0.981x elapsed=0:00:44.55    frame= 1107 fps= 25 q=28.0 size=    1024KiB time=00:00:44.20 bitrate= 189.8kbits/s speed=0.981x elapsed=0:00:45.05    frame= 1120 fps= 25 q=28.0 size=    1024KiB time=00:00:44.72 bitrate= 187.6kbits/s speed=0.982x elapsed=0:00:45.55    frame= 1132 fps= 25 q=28.0 size=    1024KiB time=00:00:45.20 bitrate= 185.6kbits/s speed=0.981x elapsed=0:00:46.05    frame= 1144 fps= 25 q=28.0 size=    1024KiB time=00:00:45.68 bitrate= 183.6kbits/s speed=0.981x elapsed=0:00:46.55    frame= 1157 fps= 25 q=28.0 size=    1024KiB time=00:00:46.20 bitrate= 181.6kbits/s speed=0.982x elapsed=0:00:47.05    frame= 1170 fps= 25 q=28.0 size=    1024KiB time=00:00:46.72 bitrate= 179.6kbits/s speed=0.982x elapsed=0:00:47.55    frame= 1182 fps= 25 q=28.0 size=    1024KiB time=00:00:47.20 bitrate= 177.7kbits/s speed=0.982x elapsed=0:00:48.05    frame= 1195 fps= 25 q=28.0 size=    1024KiB time=00:00:47.72 bitrate= 175.8kbits/s speed=0.983x elapsed=0:00:48.55    frame= 1207 fps= 25 q=28.0 size=    1024KiB time=00:00:48.20 bitrate= 174.0kbits/s speed=0.983x elapsed=0:00:49.05    frame= 1220 fps= 25 q=28.0 size=    1024KiB time=00:00:48.72 bitrate= 172.2kbits/s speed=0.983x elapsed=0:00:49.55    frame= 1232 fps= 25 q=28.0 size=    1024KiB time=00:00:49.20 bitrate= 170.5kbits/s speed=0.983x elapsed=0:00:50.05    frame= 1244 fps= 25 q=28.0 size=    1024KiB time=00:00:49.68 bitrate= 168.9kbits/s speed=0.983x elapsed=0:00:50.55    frame= 1257 fps= 25 q=28.0 size=    1280KiB time=00:00:50.20 bitrate= 208.9kbits/s speed=0.983x elapsed=0:00:51.05    frame= 1270 fps= 25 q=28.0 size=    1280KiB time=00:00:50.72 bitrate= 206.7kbits/s speed=0.984x elapsed=0:00:51.55    frame= 1282 fps= 25 q=28.0 size=    1280KiB time=00:00:51.20 bitrate= 204.8kbits/s speed=0.983x elapsed=0:00:52.05    frame= 1295 fps= 25 q=28.0 size=    1280KiB time=00:00:51.72 bitrate= 202.7kbits/s speed=0.984x elapsed=0:00:52.55    frame= 1307 fps= 25 q=28.0 size=    1280KiB time=00:00:52.20 bitrate= 200.9kbits/s speed=0.984x elapsed=0:00:53.05    frame= 1319 fps= 25 q=28.0 size=    1280KiB time=00:00:52.72 bitrate= 198.9kbits/s speed=0.984x elapsed=0:00:53.55    frame= 1332 fps= 25 q=28.0 size=    1280KiB time=00:00:53.20 bitrate= 197.1kbits/s speed=0.984x elapsed=0:00:54.05    frame= 1345 fps= 25 q=28.0 size=    1280KiB time=00:00:53.72 bitrate= 195.2kbits/s speed=0.985x elapsed=0:00:54.55    frame= 1357 fps= 25 q=28.0 size=    1280KiB time=00:00:54.20 bitrate= 193.5kbits/s speed=0.984x elapsed=0:00:55.06    frame= 1370 fps= 25 q=28.0 size=    1280KiB time=00:00:54.72 bitrate= 191.6kbits/s speed=0.985x elapsed=0:00:55.56    frame= 1382 fps= 25 q=28.0 size=    1280KiB time=00:00:55.20 bitrate= 190.0kbits/s speed=0.985x elapsed=0:00:56.06    frame= 1395 fps= 25 q=28.0 size=    1280KiB time=00:00:55.72 bitrate= 188.2kbits/s speed=0.985x elapsed=0:00:56.56    frame= 1407 fps= 25 q=28.0 size=    1280KiB time=00:00:56.20 bitrate= 186.6kbits/s speed=0.985x elapsed=0:00:57.06    frame= 1420 fps= 25 q=28.0 size=    1280KiB time=00:00:56.72 bitrate= 184.9kbits/s speed=0.985x elapsed=0:00:57.56    frame= 1432 fps= 25 q=28.0 size=    1280KiB time=00:00:57.20 bitrate= 183.3kbits/s speed=0.985x elapsed=0:00:58.06    frame= 1445 fps= 25 q=28.0 size=    1280KiB time=00:00:57.72 bitrate= 181.7kbits/s speed=0.986x elapsed=0:00:58.56    frame= 1457 fps= 25 q=28.0 size=    1280KiB time=00:00:58.20 bitrate= 180.2kbits/s speed=0.985x elapsed=0:00:59.06    frame= 1470 fps= 25 q=28.0 size=    1280KiB time=00:00:58.72 bitrate= 178.6kbits/s speed=0.986x elapsed=0:00:59.56    frame= 1482 fps= 25 q=28.0 size=    1280KiB time=00:00:59.20 bitrate= 177.1kbits/s speed=0.986x elapsed=0:01:00.06    frame= 1495 fps= 25 q=28.0 size=    1280KiB time=00:00:59.72 bitrate= 175.6kbits/s speed=0.986x elapsed=0:01:00.56    frame= 1507 fps= 25 q=28.0 size=    1536KiB time=00:01:00.20 bitrate= 209.0kbits/s speed=0.986x elapsed=0:01:01.07    frame= 1520 fps= 25 q=28.0 size=    1536KiB time=00:01:00.72 bitrate= 207.2kbits/s speed=0.986x elapsed=0:01:01.57    frame= 1533 fps= 25 q=28.0 size=    1536KiB time=00:01:01.24 bitrate= 205.5kbits/s speed=0.987x elapsed=0:01:02.07    frame= 1545 fps= 25 q=28.0 size=    1536KiB time=00:01:01.72 bitrate= 203.9kbits/s speed=0.986x elapsed=0:01:02.57    frame= 1557 fps= 25 q=28.0 size=    1536KiB time=00:01:02.20 bitrate= 202.3kbits/s speed=0.986x elapsed=0:01:03.07    frame= 1570 fps= 25 q=28.0 size=    1536KiB time=00:01:02.72 bitrate= 200.6kbits/s speed=0.987x elapsed=0:01:03.57    frame= 1583 fps= 25 q=28.0 size=    1536KiB time=00:01:03.24 bitrate= 199.0kbits/s speed=0.987x elapsed=0:01:04.07    frame= 1595 fps= 25 q=28.0 size=    1536KiB time=00:01:03.72 bitrate= 197.5kbits/s speed=0.987x elapsed=0:01:04.57    frame= 1608 fps= 25 q=28.0 size=    1536KiB time=00:01:04.24 bitrate= 195.9kbits/s speed=0.987x elapsed=0:01:05.07    frame= 1620 fps= 25 q=28.0 size=    1536KiB time=00:01:04.72 bitrate= 194.4kbits/s speed=0.987x elapsed=0:01:05.58    frame= 1633 fps= 25 q=28.0 size=    1536KiB time=00:01:05.24 bitrate= 192.9kbits/s speed=0.987x elapsed=0:01:06.08    frame= 1645 fps= 25 q=28.0 size=    1536KiB time=00:01:05.72 bitrate= 191.5kbits/s speed=0.987x elapsed=0:01:06.58    frame= 1658 fps= 25 q=28.0 size=    1536KiB time=00:01:06.24 bitrate= 190.0kbits/s speed=0.987x elapsed=0:01:07.08    frame= 1670 fps= 25 q=28.0 size=    1536KiB time=00:01:06.72 bitrate= 188.6kbits/s speed=0.987x elapsed=0:01:07.58    frame= 1683 fps= 25 q=28.0 size=    1536KiB time=00:01:07.24 bitrate= 187.1kbits/s speed=0.988x elapsed=0:01:08.08    frame= 1695 fps= 25 q=28.0 size=    1536KiB time=00:01:07.72 bitrate= 185.8kbits/s speed=0.987x elapsed=0:01:08.58    frame= 1708 fps= 25 q=28.0 size=    1536KiB time=00:01:08.24 bitrate= 184.4kbits/s speed=0.988x elapsed=0:01:09.08    frame= 1720 fps= 25 q=28.0 size=    1536KiB time=00:01:08.72 bitrate= 183.1kbits/s speed=0.988x elapsed=0:01:09.58    frame= 1733 fps= 25 q=28.0 size=    1536KiB time=00:01:09.24 bitrate= 181.7kbits/s speed=0.988x elapsed=0:01:10.08    frame= 1745 fps= 25 q=28.0 size=    1536KiB time=00:01:09.72 bitrate= 180.5kbits/s speed=0.988x elapsed=0:01:10.58    frame= 1758 fps= 25 q=28.0 size=    1792KiB time=00:01:10.24 bitrate= 209.0kbits/s speed=0.988x elapsed=0:01:11.08    frame= 1770 fps= 25 q=28.0 size=    1792KiB time=00:01:10.72 bitrate= 207.6kbits/s speed=0.988x elapsed=0:01:11.58    frame= 1783 fps= 25 q=28.0 size=    1792KiB time=00:01:11.24 bitrate= 206.1kbits/s speed=0.988x elapsed=0:01:12.08    frame= 1795 fps= 25 q=28.0 size=    1792KiB time=00:01:11.72 bitrate= 204.7kbits/s speed=0.988x elapsed=0:01:12.58    frame= 1808 fps= 25 q=28.0 size=    1792KiB time=00:01:12.24 bitrate= 203.2kbits/s speed=0.988x elapsed=0:01:13.08    frame= 1820 fps= 25 q=28.0 size=    1792KiB time=00:01:12.72 bitrate= 201.9kbits/s speed=0.988x elapsed=0:01:13.58    frame= 1833 fps= 25 q=28.0 size=    1792KiB time=00:01:13.24 bitrate= 200.4kbits/s speed=0.989x elapsed=0:01:14.08    frame= 1845 fps= 25 q=28.0 size=    1792KiB time=00:01:13.72 bitrate= 199.1kbits/s speed=0.988x elapsed=0:01:14.58    frame= 1858 fps= 25 q=28.0 size=    1792KiB time=00:01:14.24 bitrate= 197.7kbits/s speed=0.989x elapsed=0:01:15.08    frame= 1871 fps= 25 q=28.0 size=    1792KiB time=00:01:14.76 bitrate= 196.4kbits/s speed=0.989x elapsed=0:01:15.59    frame= 1883 fps= 25 q=28.0 size=    1792KiB time=00:01:15.24 bitrate= 195.1kbits/s speed=0.989x elapsed=0:01:16.09    frame= 1895 fps= 25 q=28.0 size=    1792KiB time=00:01:15.72 bitrate= 193.9kbits/s speed=0.989x elapsed=0:01:16.59    frame= 1908 fps= 25 q=28.0 size=    1792KiB time=00:01:16.24 bitrate= 192.6kbits/s speed=0.989x elapsed=0:01:17.09    frame= 1920 fps= 25 q=28.0 size=    1792KiB time=00:01:16.76 bitrate= 191.2kbits/s speed=0.989x elapsed=0:01:17.59    frame= 1933 fps= 25 q=28.0 size=    1792KiB time=00:01:17.24 bitrate= 190.1kbits/s speed=0.989x elapsed=0:01:18.09    frame= 1946 fps= 25 q=28.0 size=    1792KiB time=00:01:17.76 bitrate= 188.8kbits/s speed=0.989x elapsed=0:01:18.59    frame= 1958 fps= 25 q=28.0 size=    1792KiB time=00:01:18.24 bitrate= 187.6kbits/s speed=0.989x elapsed=0:01:19.09    frame= 1971 fps= 25 q=28.0 size=    1792KiB time=00:01:18.76 bitrate= 186.4kbits/s speed=0.989x elapsed=0:01:19.59    frame= 1983 fps= 25 q=28.0 size=    1792KiB time=00:01:19.24 bitrate= 185.3kbits/s speed=0.989x elapsed=0:01:20.09    frame= 1995 fps= 25 q=28.0 size=    1792KiB time=00:01:19.72 bitrate= 184.1kbits/s speed=0.989x elapsed=0:01:20.59    frame= 2008 fps= 25 q=28.0 size=    2048KiB time=00:01:20.24 bitrate= 209.1kbits/s speed=0.989x elapsed=0:01:21.09    frame= 2021 fps= 25 q=28.0 size=    2048KiB time=00:01:20.76 bitrate= 207.7kbits/s speed=0.99x elapsed=0:01:21.59    frame= 2033 fps= 25 q=28.0 size=    2048KiB time=00:01:21.24 bitrate= 206.5kbits/s speed=0.99x elapsed=0:01:22.09    frame= 2045 fps= 25 q=28.0 size=    2048KiB time=00:01:21.72 bitrate= 205.3kbits/s speed=0.989x elapsed=0:01:22.59    frame= 2058 fps= 25 q=28.0 size=    2048KiB time=00:01:22.24 bitrate= 204.0kbits/s speed=0.99x elapsed=0:01:23.09    frame= 2071 fps= 25 q=28.0 size=    2048KiB time=00:01:22.76 bitrate= 202.7kbits/s speed=0.99x elapsed=0:01:23.59    frame= 2083 fps= 25 q=28.0 size=    2048KiB time=00:01:23.24 bitrate= 201.6kbits/s speed=0.99x elapsed=0:01:24.09    frame= 2096 fps= 25 q=28.0 size=    2048KiB time=00:01:23.76 bitrate= 200.3kbits/s speed=0.99x elapsed=0:01:24.59    frame= 2108 fps= 25 q=28.0 size=    2048KiB time=00:01:24.24 bitrate= 199.2kbits/s speed=0.99x elapsed=0:01:25.10    frame= 2121 fps= 25 q=28.0 size=    2048KiB time=00:01:24.76 bitrate= 197.9kbits/s speed=0.99x elapsed=0:01:25.60    frame= 2133 fps= 25 q=28.0 size=    2048KiB time=00:01:25.24 bitrate= 196.8kbits/s speed=0.99x elapsed=0:01:26.10    frame= 2145 fps= 25 q=28.0 size=    2048KiB time=00:01:25.76 bitrate= 195.6kbits/s speed=0.99x elapsed=0:01:26.60    frame= 2158 fps= 25 q=28.0 size=    2048KiB time=00:01:26.24 bitrate= 194.5kbits/s speed=0.99x elapsed=0:01:27.10    frame= 2171 fps= 25 q=28.0 size=    2048KiB time=00:01:26.76 bitrate= 193.4kbits/s speed=0.99x elapsed=0:01:27.60    frame= 2183 fps= 25 q=28.0 size=    2048KiB time=00:01:27.24 bitrate= 192.3kbits/s speed=0.99x elapsed=0:01:28.10    frame= 2196 fps= 25 q=28.0 size=    2048KiB time=00:01:27.76 bitrate= 191.2kbits/s speed=0.99x elapsed=0:01:28.60    frame= 2208 fps= 25 q=28.0 size=    2048KiB time=00:01:28.24 bitrate= 190.1kbits/s speed=0.99x elapsed=0:01:29.10    frame= 2221 fps= 25 q=28.0 size=    2048KiB time=00:01:28.76 bitrate= 189.0kbits/s speed=0.991x elapsed=0:01:29.60    frame= 2233 fps= 25 q=28.0 size=    2048KiB time=00:01:29.24 bitrate= 188.0kbits/s speed=0.99x elapsed=0:01:30.10    frame= 2246 fps= 25 q=25.0 size=    2048KiB time=00:01:29.76 bitrate= 186.9kbits/s speed=0.991x elapsed=0:01:30.60    frame= 2259 fps= 25 q=28.0 size=    2304KiB time=00:01:30.28 bitrate= 209.1kbits/s speed=0.991x elapsed=0:01:31.10    frame= 2271 fps= 25 q=28.0 size=    2304KiB time=00:01:30.76 bitrate= 208.0kbits/s speed=0.991x elapsed=0:01:31.60    frame= 2283 fps= 25 q=28.0 size=    2304KiB time=00:01:31.24 bitrate= 206.9kbits/s speed=0.991x elapsed=0:01:32.10    frame= 2296 fps= 25 q=28.0 size=    2304KiB time=00:01:31.76 bitrate= 205.7kbits/s speed=0.991x elapsed=0:01:32.60    frame= 2308 fps= 25 q=28.0 size=    2304KiB time=00:01:32.24 bitrate= 204.6kbits/s speed=0.991x elapsed=0:01:33.11    frame= 2321 fps= 25 q=28.0 size=    2304KiB time=00:01:32.76 bitrate= 203.5kbits/s speed=0.991x elapsed=0:01:33.61    frame= 2333 fps= 25 q=28.0 size=    2304KiB time=00:01:33.24 bitrate= 202.4kbits/s speed=0.991x elapsed=0:01:34.11    frame= 2346 fps= 25 q=28.0 size=    2304KiB time=00:01:33.76 bitrate= 201.3kbits/s speed=0.991x elapsed=0:01:34.61    frame= 2359 fps= 25 q=28.0 size=    2304KiB time=00:01:34.28 bitrate= 200.2kbits/s speed=0.991x elapsed=0:01:35.11    frame= 2371 fps= 25 q=28.0 size=    2304KiB time=00:01:34.76 bitrate= 199.2kbits/s speed=0.991x elapsed=0:01:35.61    frame= 2384 fps= 25 q=28.0 size=    2304KiB time=00:01:35.28 bitrate= 198.1kbits/s speed=0.991x elapsed=0:01:36.11    frame= 2396 fps= 25 q=28.0 size=    2304KiB time=00:01:35.76 bitrate= 197.1kbits/s speed=0.991x elapsed=0:01:36.61    frame= 2409 fps= 25 q=28.0 size=    2304KiB time=00:01:36.28 bitrate= 196.0kbits/s speed=0.991x elapsed=0:01:37.11    frame= 2421 fps= 25 q=28.0 size=    2304KiB time=00:01:36.76 bitrate= 195.1kbits/s speed=0.991x elapsed=0:01:37.61    frame= 2433 fps= 25 q=28.0 size=    2304KiB time=00:01:37.28 bitrate= 194.0kbits/s speed=0.991x elapsed=0:01:38.11    frame= 2446 fps= 25 q=28.0 size=    2304KiB time=00:01:37.76 bitrate= 193.1kbits/s speed=0.991x elapsed=0:01:38.61    frame= 2459 fps= 25 q=28.0 size=    2304KiB time=00:01:38.28 bitrate= 192.0kbits/s speed=0.992x elapsed=0:01:39.11    frame= 2471 fps= 25 q=28.0 size=    2304KiB time=00:01:38.76 bitrate= 191.1kbits/s speed=0.991x elapsed=0:01:39.61    frame= 2484 fps= 25 q=28.0 size=    2304KiB time=00:01:39.28 bitrate= 190.1kbits/s speed=0.992x elapsed=0:01:40.11    frame= 2496 fps= 25 q=25.0 size=    2304KiB time=00:01:39.76 bitrate= 189.2kbits/s speed=0.991x elapsed=0:01:40.61    frame= 2509 fps= 25 q=28.0 size=    2560KiB time=00:01:40.28 bitrate= 209.1kbits/s speed=0.992x elapsed=0:01:41.11    frame= 2521 fps= 25 q=28.0 size=    2560KiB time=00:01:40.76 bitrate= 208.1kbits/s speed=0.992x elapsed=0:01:41.61    frame= 2534 fps= 25 q=28.0 size=    2560KiB time=00:01:41.28 bitrate= 207.1kbits/s speed=0.992x elapsed=0:01:42.12    frame= 2546 fps= 25 q=28.0 size=    2560KiB time=00:01:41.76 bitrate= 206.1kbits/s speed=0.992x elapsed=0:01:42.62    frame= 2559 fps= 25 q=28.0 size=    2560KiB time=00:01:42.28 bitrate= 205.0kbits/s speed=0.992x elapsed=0:01:43.12    frame= 2571 fps= 25 q=28.0 size=    2560KiB time=00:01:42.76 bitrate= 204.1kbits/s speed=0.992x elapsed=0:01:43.62    frame= 2584 fps= 25 q=28.0 size=    2560KiB time=00:01:43.28 bitrate= 203.1kbits/s speed=0.992x elapsed=0:01:44.12    frame= 2596 fps= 25 q=28.0 size=    2560KiB time=00:01:43.76 bitrate= 202.1kbits/s speed=0.992x elapsed=0:01:44.62    frame= 2609 fps= 25 q=28.0 size=    2560KiB time=00:01:44.28 bitrate= 201.1kbits/s speed=0.992x elapsed=0:01:45.12    frame= 2621 fps= 25 q=28.0 size=    2560KiB time=00:01:44.76 bitrate= 200.2kbits/s speed=0.992x elapsed=0:01:45.62    frame= 2633 fps= 25 q=28.0 size=    2560KiB time=00:01:45.24 bitrate= 199.3kbits/s speed=0.992x elapsed=0:01:46.12    frame= 2646 fps= 25 q=28.0 size=    2560KiB time=00:01:45.76 bitrate= 198.3kbits/s speed=0.992x elapsed=0:01:46.62    frame= 2659 fps= 25 q=28.0 size=    2560KiB time=00:01:46.28 bitrate= 197.3kbits/s speed=0.992x elapsed=0:01:47.12    frame= 2672 fps= 25 q=28.0 size=    2560KiB time=00:01:46.80 bitrate= 196.4kbits/s speed=0.992x elapsed=0:01:47.63    frame= 2684 fps= 25 q=28.0 size=    2560KiB time=00:01:47.28 bitrate= 195.5kbits/s speed=0.992x elapsed=0:01:48.13    frame= 2697 fps= 25 q=28.0 size=    2560KiB time=00:01:47.80 bitrate= 194.5kbits/s speed=0.992x elapsed=0:01:48.63    frame= 2709 fps= 25 q=28.0 size=    2560KiB time=00:01:48.28 bitrate= 193.7kbits/s speed=0.992x elapsed=0:01:49.13    frame= 2722 fps= 25 q=28.0 size=    2560KiB time=00:01:48.80 bitrate= 192.8kbits/s speed=0.992x elapsed=0:01:49.63    [out#0/matroska @ 0x55badcc86500] Error writing trailer: Immediate exit requested
[out#0/matroska @ 0x55badcc86500] Error closing file: Immediate exit requested
[out#0/matroska @ 0x55badcc86500] video:3327KiB audio:0KiB subtitle:0KiB other streams:0KiB global headers:0KiB muxing overhead: unknown
frame= 2754 fps= 25 q=-1.0 Lsize=    2560KiB time=00:01:50.08 bitrate= 190.5kbits/s speed=0.999x elapsed=0:01:50.20    
[libx264 @ 0x55badcc87f00] frame I:12    Avg QP:11.16  size:117035
[libx264 @ 0x55badcc87f00] frame P:696   Avg QP:18.45  size:  1811
[libx264 @ 0x55badcc87f00] frame B:2046  Avg QP:23.98  size:   363
[libx264 @ 0x55badcc87f00] consecutive B-frames:  0.8%  0.2%  0.3% 98.6%
[libx264 @ 0x55badcc87f00] mb I  I16..4: 88.8%  1.4%  9.7%
[libx264 @ 0x55badcc87f00] mb P  I16..4:  0.3%  0.1%  0.0%  P16..4:  0.3%  0.1%  0.1%  0.0%  0.0%    skip:99.1%
[libx264 @ 0x55badcc87f00] mb B  I16..4:  0.0%  0.0%  0.0%  B16..8:  0.2%  0.1%  0.0%  direct: 0.1%  skip:99.7%  L0:47.2% L1:48.0% BI: 4.8%
[libx264 @ 0x55badcc87f00] 8x8 transform intra:4.0% inter:3.6%
[libx264 @ 0x55badcc87f00] coded y,uvDC,uvAC intra: 12.7% 18.4% 14.7% inter: 0.0% 0.1% 0.1%
[libx264 @ 0x55badcc87f00] i16 v,h,dc,p: 72% 27%  2%  0%
[libx264 @ 0x55badcc87f00] i8 v,h,dc,ddl,ddr,vr,hd,vl,hu: 11% 20% 65%  1%  0%  0%  1%  0%  1%
[libx264 @ 0x55badcc87f00] i4 v,h,dc,ddl,ddr,vr,hd,vl,hu: 31% 28% 21%  3%  3%  5%  3%  4%  3%
[libx264 @ 0x55badcc87f00] i8c dc,h,v,p: 63% 28%  8%  1%
[libx264 @ 0x55badcc87f00] Weighted P-Frames: Y:0.0% UV:0.0%
[libx264 @ 0x55badcc87f00] kb/s:247.39
Exiting normally, received signal 2.
